<svg xmlns="http://www.w3.org/2000/svg" width="320" height="240" viewBox="-300 -120 1454.545 1090.909" xmlns:v="https://vecta.io/nano"><path d="M.199 374L.398 59l1.79-6 1.79-6 4.142-8.5 4.142-8.5 9.047-9.047 9.047-9.047 8.5-4.145 8.5-4.145 6.5-1.808L60.357 0h359.5 359.5l6.5 1.808 6.5 1.808 8.233 4.039 8.233 4.039 7.088 6.562 7.088 6.562 4.114 6.059 4.114 6.059 2.788 6.532L836.803 50l.027 1.631.027 1.631-28.75.515-28.75.515-10.5 1.659-10.5 1.659-9 2.077-9 2.077-10 3.464-10 3.464-10.984 5.469-10.984 5.469-8.016 5.395-8.016 5.395-7 6.206-7 6.206-7.304 8.085-7.304 8.085-7.027 10.425-7.027 10.425-5.352 11.075L628.99 162l-4.974 12.5-4.974 12.5-3.678 11-3.678 11-10.915 38.781-10.915 38.781v.469.469h-24.933-24.933l-.53 1.75-.53 1.75-13.531 47.771-13.531 47.771.243.91.243.91-3.473 2.591-3.473 2.591-2.247-10.772L500.916 372l-2.625-7.5-2.625-7.5-3.666-7.5-3.666-7.5-4.989-7.495-4.989-7.495-9-9.005-9-9.005-8.602-5.743-8.602-5.743-9.398-4.443-9.398-4.443-7.935-2.582-7.935-2.582-9.565-1.93-9.565-1.93-11-1.178-11-1.178-16 .585-16 .585-9.894 2.093-9.894 2.093-9.437 3.023-9.437 3.023-10.632 4.454-10.632 4.454-10.038 5.596-10.038 5.596-9 6.023-9 6.023-5 4.029-5 4.029-6.223 6.019-6.223 6.019-.393-.444-.393-.444 6.754-23.734 6.754-23.734.631-2.516.631-2.516h-57.477-57.477l-1.999 6.75-1.999 6.75-54.085 191.5L1.773 684l-.886 2.5L0 689z" fill="#1374ce"/><path d="M226.915 590.449l-7.442-.933-7.513-2.061-7.513-2.061-7.042-3.697-7.042-3.697-5.642-5.639-5.642-5.639-3.523-6.361-3.523-6.361-2.184-7-2.184-7-.537-11.112-.537-11.112 1.725-10.316 1.725-10.316 2.896-9.75 2.896-9.75 3.882-8.822 3.882-8.822 5.056-8.5 5.056-8.5 6.663-8.274 6.663-8.274 7.754-6.833 7.754-6.833 6.277-4.262 6.277-4.262 10.13-4.829 10.13-4.829 9.974-2.582 9.974-2.582 12.353-1.164 12.353-1.164 11.673 1.177 11.673 1.177 7.484 2.085 7.484 2.085 6.91 3.631 6.91 3.631 6.157 6.157 6.157 6.157 3.728 7.093 3.728 7.093 1.972 7.71 1.972 7.71v11.805 11.805l-1.927 9.941-1.927 9.941-3.51 10.489-3.51 10.489-4.69 9.356-4.69 9.356-6.123 8.973-6.123 8.973-8.5 8.644-8.5 8.644-8.036 5.911-8.036 5.911-7.964 4.113-7.964 4.113-7.266 2.594-7.266 2.594-9.834 2.004-9.834 2.004-12.899.453-12.899.453z" fill="#2a3eb3"/><path d="M84.35 834.763L85.743 830l25.666-90.5 25.666-90.5.528-.5.528-.5.38 1.052.38 1.052 3.733 6.406 3.733 6.406 6.896 7.312 6.896 7.312 7.104 4.392 7.104 4.392 6.187 2.574 6.187 2.574 8.813 2.564 8.813 2.564 11.5 1.997 11.5 1.997 15.5.589 15.5.589 11.718-1.153 11.718-1.153 9.282-1.946 9.282-1.946 6.925-2.018 6.925-2.018 7.075-2.661 7.075-2.661 11-5.263 11-5.263 10.919-6.644 10.919-6.644 11.581-8.64 11.581-8.64 17.528-17.562L430.414 610l8.722-11.332 8.722-11.332 6.401-9.668L460.66 568l6.702-11.765 6.702-11.765 5.806-12.833 5.806-12.833 5.026-14.551 5.026-14.551 3.571-14.352L502.87 461l1.573-10 1.573-10 .512-17.5.512-17.5-.949-5.812-.949-5.812 4.502-3.438 4.502-3.438h23.356 23.356v.845.845l-42.029 149.905L476.799 689l-.443 1.258-.443 1.258 62.718-.258 62.718-.258 42.516-151.5L686.383 388l35.508-.262 35.508-.262 22.417-22.434 22.417-22.434-8.445-27.304L785.343 288l-35.306-.263-35.306-.263.53-1.737.53-1.737 9.97-35 9.97-35 3.588-8.869 3.588-8.869 4.157-7.131 4.157-7.131 5.608-5.62 5.608-5.62 8.46-4.04 8.46-4.04 7.5-1.707 7.5-1.707 12-.501 12-.501 8 1.531 8 1.531 2.763 1.067 2.763 1.067-.282 308.27-.282 308.27-1.791 6-1.791 6-4.142 8.5-4.142 8.5-9.047 9.047-9.047 9.047-8.5 4.142-8.5 4.142-6 1.791-6 1.791-348.7.282-348.7.282z" fill="#1b1174"/></svg>